<mxfile host="app.diagrams.net" modified="2024-03-02T18:12:00.259Z" agent="Mozilla/5.0 (Windows NT 10.0; Win64; x64) AppleWebKit/537.36 (KHTML, like Gecko) Chrome/122.0.0.0 Safari/537.36" version="24.0.1" etag="CdniZXBfbyLGQr81gzTi" type="github">
  <diagram name="Trang-1" id="Axq2uFbwtrvb7-SFWUbP">
    <mxGraphModel>
      <root>
        <mxCell id="0" />
        <mxCell id="1" parent="0" />
      </root>
    </mxGraphModel>
  </diagram>
</mxfile>
